<svg width="16" height="16" viewBox="0 0 16 16" fill="none" xmlns="http://www.w3.org/2000/svg">
<path d="M1.33398 3.9987C1.33398 3.29145 1.61494 2.61318 2.11503 2.11308C2.61513 1.61298 3.29341 1.33203 4.00065 1.33203H12.0007C12.7079 1.33203 13.3862 1.61298 13.8863 2.11308C14.3864 2.61318 14.6673 3.29145 14.6673 3.9987V9.33203C14.6673 10.0393 14.3864 10.7176 13.8863 11.2176C13.3862 11.7177 12.7079 11.9987 12.0007 11.9987H8.86865L5.03665 14.5534C4.93626 14.6202 4.81962 14.6585 4.69917 14.6643C4.57872 14.67 4.45896 14.643 4.35265 14.5861C4.24634 14.5292 4.15746 14.4445 4.09547 14.341C4.03348 14.2376 4.00071 14.1193 4.00065 13.9987V11.9987C3.29341 11.9987 2.61513 11.7177 2.11503 11.2176C1.61494 10.7176 1.33398 10.0393 1.33398 9.33203V3.9987ZM4.00065 2.66536C3.64703 2.66536 3.30789 2.80584 3.05784 3.05589C2.80779 3.30594 2.66732 3.64508 2.66732 3.9987V9.33203C2.66732 9.68565 2.80779 10.0248 3.05784 10.2748C3.30789 10.5249 3.64703 10.6654 4.00065 10.6654H4.66732C4.84413 10.6654 5.0137 10.7356 5.13872 10.8606C5.26375 10.9857 5.33398 11.1552 5.33398 11.332V12.7534L8.29798 10.7774C8.40736 10.7044 8.53586 10.6655 8.66732 10.6654H12.0007C12.3543 10.6654 12.6934 10.5249 12.9435 10.2748C13.1935 10.0248 13.334 9.68565 13.334 9.33203V3.9987C13.334 3.64508 13.1935 3.30594 12.9435 3.05589C12.6934 2.80584 12.3543 2.66536 12.0007 2.66536H4.00065Z" fill="black"/>
</svg>
