<svg
              width="27"
              height="26"
              viewBox="0 0 27 26"
              fill="none"
              xmlns="http://www.w3.org/2000/svg"
            >
              <path
                d="M0.760742 12.5071C0.760742 6.6112 0.760742 3.66325 2.68209 1.83162C4.60346 -1.56944e-07 7.69583 0 13.8806 0C20.0653 0 23.1577 -1.56944e-07 25.0791 1.83162C27.0004 3.66325 27.0004 6.6112 27.0004 12.5071C27.0004 18.403 27.0004 21.351 25.0791 23.1826C23.1577 25.0142 20.0653 25.0142 13.8806 25.0142C7.69583 25.0142 4.60346 25.0142 2.68209 23.1826C0.760742 21.351 0.760742 18.403 0.760742 12.5071Z"
                fill="#E33827"
              />
              <path
                d="M18.1919 8.39785L9.57176 16.6154M18.1919 16.6154L9.57176 8.39785"
                stroke="white"
                stroke-width="2"
                stroke-linecap="round"
                stroke-linejoin="round"
              />
            </svg>