<svg width="20" height="20" viewBox="0 0 20 20" fill="none" xmlns="http://www.w3.org/2000/svg">
<path d="M9.99932 4.39111L10.4127 5.50809C10.9546 6.97275 11.2257 7.70508 11.7599 8.23931C12.2941 8.77354 13.0263 9.04452 14.491 9.58649L15.608 9.99981L14.491 10.4131C13.0263 10.9551 12.2941 11.2261 11.7599 11.7603C11.2257 12.2945 10.9546 13.0269 10.4127 14.4915L9.99932 15.6085L9.58596 14.4915C9.04402 13.0269 8.77298 12.2945 8.23875 11.7603C7.70452 11.2261 6.97231 10.9551 5.5076 10.4131L4.39062 9.99981L5.5076 9.58649C6.97231 9.04452 7.70452 8.77354 8.23875 8.23931C8.77298 7.70508 9.04402 6.97275 9.58596 5.50809L9.99932 4.39111Z" stroke="white" stroke-width="1.24638" stroke-linejoin="round"/>
</svg>
