<svg width="54" height="54" viewBox="0 0 54 54" fill="none" xmlns="http://www.w3.org/2000/svg">
<rect x="2.5" y="2.5" width="48.3196" height="48.2962" rx="10.5" fill="#3B63FB"/>
<rect x="2.5" y="2.5" width="48.3196" height="48.2962" rx="10.5" stroke="white" stroke-width="5"/>
<path d="M26.6589 31.266C26.4811 31.266 26.3144 31.2393 26.1589 31.1859C26.0033 31.1325 25.8589 31.0408 25.7255 30.9108L20.9255 26.2608C20.6589 26.0024 20.5309 25.7011 20.5415 25.3566C20.5522 25.0122 20.6802 24.7108 20.9255 24.4524C21.1922 24.1941 21.5091 24.0598 21.8762 24.0494C22.2433 24.0391 22.5597 24.1627 22.8255 24.4202L25.3255 26.842V17.6066C25.3255 17.2406 25.4535 16.9341 25.7095 16.6869C25.9655 16.4398 26.282 16.3158 26.6589 16.3149C27.0357 16.3141 27.3526 16.4381 27.6095 16.6869C27.8664 16.9358 27.994 17.2424 27.9922 17.6066V26.842L30.4922 24.4202C30.7589 24.1618 31.0757 24.0378 31.4429 24.0482C31.81 24.0585 32.1264 24.1933 32.3922 24.4524C32.6366 24.7108 32.7646 25.0122 32.7762 25.3566C32.7877 25.7011 32.6597 26.0024 32.3922 26.2608L27.5922 30.9108C27.4589 31.0399 27.3144 31.1317 27.1589 31.1859C27.0033 31.2402 26.8366 31.2668 26.6589 31.266ZM18.6589 36.9816C17.9255 36.9816 17.298 36.7289 16.7762 36.2234C16.2544 35.7179 15.9931 35.1096 15.9922 34.3983V31.8149C15.9922 31.449 16.1202 31.1424 16.3762 30.8953C16.6322 30.6481 16.9486 30.5241 17.3255 30.5233C17.7024 30.5224 18.0193 30.6464 18.2762 30.8953C18.5331 31.1441 18.6606 31.4507 18.6589 31.8149V34.3983H34.6589V31.8149C34.6589 31.449 34.7869 31.1424 35.0429 30.8953C35.2989 30.6481 35.6153 30.5241 35.9922 30.5233C36.3691 30.5224 36.686 30.6464 36.9429 30.8953C37.1997 31.1441 37.3273 31.4507 37.3255 31.8149V34.3983C37.3255 35.1087 37.0646 35.7171 36.5429 36.2234C36.0211 36.7297 35.3931 36.9825 34.6589 36.9816H18.6589Z" fill="white"/>
</svg>
