 <svg
                      width="20"
                      height="20"
                      viewBox="0 0 21 22"
                      fill="none"
                      xmlns="http://www.w3.org/2000/svg"
                    >
                      <path
                        d="M0.443867 10.773C0.443375 12.6053 0.908 14.3944 1.79148 15.9713L0.359375 21.3591L5.71044 19.9134C7.19048 20.7436 8.84874 21.1786 10.5339 21.1787H10.5383C16.1013 21.1787 20.6296 16.5143 20.632 10.7812C20.6331 8.00309 19.5841 5.39073 17.6781 3.42533C15.7726 1.46011 13.2382 0.377244 10.5379 0.375977C4.97429 0.375977 0.446246 5.04012 0.443949 10.773"
                        fill="url(#paint0_linear_7100_26150)"
                      />
                      <path
                        d="M0.0877734 10.77C0.0871992 12.6682 0.568476 14.5212 1.48345 16.1546L0 21.7356L5.54293 20.238C7.07019 21.0961 8.78973 21.5485 10.5395 21.5491H10.544C16.3065 21.5491 20.9975 16.7169 21 10.7786C21.001 7.90064 19.9142 5.19437 17.9402 3.15857C15.966 1.12301 13.341 0.00118336 10.544 0C4.78045 0 0.0900703 4.8315 0.0877734 10.77ZM3.38879 15.8733L3.18183 15.5348C2.3118 14.1093 1.85259 12.4621 1.85325 10.7706C1.85505 5.83474 5.75351 1.819 10.5473 1.819C12.8687 1.82001 15.0504 2.7525 16.6914 4.44437C18.3323 6.13641 19.2352 8.38565 19.2346 10.7779C19.2325 15.7138 15.3339 19.73 10.544 19.73H10.5405C8.98086 19.7292 7.45123 19.2976 6.11723 18.482L5.79977 18.288L2.51048 19.1767L3.38879 15.8733Z"
                        fill="url(#paint1_linear_7100_26150)"
                      />
                      <path
                        d="M7.93012 6.26731C7.73439 5.81907 7.52841 5.81002 7.34228 5.80216C7.18987 5.7954 7.01563 5.79591 6.84156 5.79591C6.66733 5.79591 6.38424 5.86344 6.14495 6.13266C5.90542 6.40213 5.23047 7.05331 5.23047 8.37775C5.23047 9.70219 6.16669 10.9822 6.2972 11.162C6.42788 11.3415 8.1046 14.1464 10.7601 15.2255C12.9671 16.1222 13.4162 15.9438 13.8952 15.8989C14.3742 15.8541 15.441 15.2479 15.6586 14.6192C15.8764 13.9907 15.8764 13.4519 15.8111 13.3393C15.7458 13.2272 15.5716 13.1598 15.3103 13.0252C15.049 12.8907 13.7645 12.2393 13.5251 12.1495C13.2855 12.0597 13.1114 12.0149 12.9371 12.2845C12.7629 12.5536 12.2626 13.1598 12.1101 13.3393C11.9578 13.5193 11.8053 13.5417 11.5441 13.407C11.2827 13.272 10.4413 12.988 9.44302 12.071C8.66635 11.3575 8.142 10.4763 7.98959 10.2067C7.83718 9.93759 7.97327 9.7917 8.10427 9.65756C8.22166 9.53694 8.36562 9.34321 8.49638 9.18607C8.62664 9.02886 8.67012 8.91669 8.75724 8.73716C8.84444 8.55745 8.8008 8.40024 8.73558 8.26559C8.67012 8.13094 8.16243 6.79957 7.93012 6.26731Z"
                        fill="white"
                      />
                      <defs>
                        <linearGradient
                          id="paint0_linear_7100_26150"
                          x1="1013.99"
                          y1="2098.69"
                          x2="1013.99"
                          y2="0.375977"
                          gradientUnits="userSpaceOnUse"
                        >
                          <stop stop-color="#1FAF38" />
                          <stop offset="1" stop-color="#60D669" />
                        </linearGradient>
                        <linearGradient
                          id="paint1_linear_7100_26150"
                          x1="1050"
                          y1="2173.56"
                          x2="1050"
                          y2="0"
                          gradientUnits="userSpaceOnUse"
                        >
                          <stop stop-color="#F9F9F9" />
                          <stop offset="1" stop-color="white" />
                        </linearGradient>
                      </defs>
                    </svg>