<svg width="16" height="16" viewBox="0 0 16 16" fill="none" xmlns="http://www.w3.org/2000/svg">
<path d="M9.28387 8.51866L7.85167 7.08646C7.65647 6.89126 7.55887 6.79366 7.45353 6.74146C7.2532 6.64217 7.018 6.64217 6.8176 6.74146C6.71233 6.79366 6.61471 6.89126 6.41949 7.08646C6.22425 7.28172 6.12664 7.37932 6.07446 7.48459C5.97518 7.68499 5.97518 7.92019 6.07446 8.12052C6.12664 8.22586 6.22425 8.32346 6.41949 8.51866L7.85167 9.95086M9.28387 8.51866L13.5805 12.8153C13.7757 13.0105 13.8733 13.1081 13.9255 13.2135C14.0248 13.4138 14.0248 13.649 13.9255 13.8494C13.8733 13.9547 13.7757 14.0523 13.5805 14.2475C13.3853 14.4427 13.2877 14.5403 13.1824 14.5925C12.982 14.6918 12.7468 14.6918 12.5465 14.5925C12.4411 14.5403 12.3435 14.4427 12.1483 14.2475L7.85167 9.95086M9.28387 8.51866L7.85167 9.95086" stroke="white" stroke-linecap="round" stroke-linejoin="round"/>
<path d="M11.3385 1.33301L11.5351 1.86407C11.7927 2.56045 11.9216 2.90864 12.1756 3.16264C12.4296 3.41664 12.7777 3.54548 13.4741 3.80316L14.0052 3.99967L13.4741 4.19619C12.7777 4.45387 12.4296 4.58271 12.1756 4.83671C11.9216 5.09071 11.7927 5.43889 11.5351 6.13527L11.3385 6.66634L11.142 6.13527C10.8843 5.4389 10.7555 5.09071 10.5015 4.83671C10.2475 4.58271 9.89934 4.45387 9.20294 4.19619L8.67188 3.99967L9.20294 3.80316C9.89934 3.54548 10.2475 3.41664 10.5015 3.16264C10.7555 2.90864 10.8843 2.56045 11.142 1.86407L11.3385 1.33301Z" stroke="white" stroke-linejoin="round"/>
<path d="M4 2.66699L4.14739 3.06529C4.34065 3.58757 4.43728 3.84872 4.62778 4.03922C4.81827 4.22971 5.07942 4.32635 5.6017 4.51961L6 4.66699L5.6017 4.81438C5.07942 5.00764 4.81827 5.10427 4.62777 5.29477C4.43728 5.48527 4.34065 5.74641 4.14739 6.26869L4 6.66699L3.85261 6.26869C3.65935 5.74641 3.56272 5.48527 3.37222 5.29477C3.18173 5.10427 2.92058 5.00764 2.3983 4.81438L2 4.66699L2.3983 4.51961C2.92058 4.32635 3.18173 4.22971 3.37222 4.03921C3.56272 3.84872 3.65935 3.58757 3.85261 3.06529L4 2.66699Z" stroke="white" stroke-linejoin="round"/>
</svg>
